# xmcd
#
# Track frame offsets: 
#        150
#        10692
#        27441
#        57369
#        72598
#        85495
#        102074
#        117405
#        131920
#        144042
#        159867
#
# Disc length: 2342 seconds
#
# Revision: 0
# Processed by: cddbd v1.5.2PL0 Copyright (c) Steve Scherf et al.
# Submitted via: ExactAudioCopy v1.0b4
#
DISCID=8f09240b
DTITLE=Johnny Mastro and Mama's Boys - Never Trust the Living
DYEAR=2016
DGENRE=Blues
TTITLE0=Snake Doctor
TTITLE1=Whiskey
TTITLE2=Judgement Day
TTITLE3=Monkey Man
TTITLE4=Don't Believe
TTITLE5=House of the Rising Sun
TTITLE6=Walking
TTITLE7=Never Trust the Living
TTITLE8=Bucksnort Annie
TTITLE9=Sad Night Owl
TTITLE10=Indrid Cold
EXTD=
EXTT0=
EXTT1=
EXTT2=
EXTT3=
EXTT4=
EXTT5=
EXTT6=
EXTT7=
EXTT8=
EXTT9=
EXTT10=
PLAYORDER=
